<?xml version="1.0" encoding="UTF-8" standalone="no"?>
<!DOCTYPE svg PUBLIC "-//W3C//DTD SVG 1.1//EN" "http://www.w3.org/Graphics/SVG/1.1/DTD/svg11.dtd">
<svg width="100%" height="100%" viewBox="0 0 125 125" version="1.1" xmlns="http://www.w3.org/2000/svg" xmlns:xlink="http://www.w3.org/1999/xlink" xml:space="preserve" xmlns:serif="http://www.serif.com/" style="fill-rule:evenodd;clip-rule:evenodd;stroke-linejoin:round;stroke-miterlimit:2;">
    <g transform="matrix(1,0,0,1,7.995,16.925)">
        <path d="M67,11L67,19C70.416,19.054 73.783,19.828 76.88,21.27C80.375,23.103 83.474,25.607 86,28.64L80.86,33.56C76.94,28.34 72.163,25.73 66.53,25.73C61.731,25.617 57.099,27.531 53.78,31C50.364,34.398 48.502,39.063 48.64,43.88C48.677,53.487 56.399,61.458 66,61.8C69.519,61.813 72.924,60.539 75.57,58.22C78.247,56.092 79.957,52.972 80.31,49.57L68.36,49.57L68.36,42.79L88.11,42.79L88.11,44.37C88.162,47.595 87.734,50.81 86.84,53.91C85.956,56.565 84.532,59.01 82.66,61.09C78.723,65.665 73.034,68.375 67,68.55L67,76.73C84.194,75.568 97.718,61.098 97.718,43.865C97.718,26.632 84.194,12.162 67,11Z" style="fill-rule:nonzero;"/>
    </g>
    <g transform="matrix(1,0,0,1,7.995,16.925)">
        <path d="M30.49,68.79L30.49,67.29C30.49,60.51 24.68,59.86 24.43,59.84L23.08,59.7L23.08,26.81L24.47,26.71C24.99,26.66 29.6,26.07 29.6,20.02L29.6,18.52L63.33,18.52L63.33,11L23,11C22.973,16.89 18.11,21.717 12.22,21.7L12.22,28.9C12.386,28.856 12.558,28.832 12.73,28.83C13.8,28.83 14.68,29.71 14.68,30.78C14.68,31.85 13.8,32.73 12.73,32.73C12.558,32.728 12.386,32.704 12.22,32.66L12.22,42.16C12.386,42.112 12.557,42.085 12.73,42.08C13.647,42.278 14.308,43.096 14.308,44.035C14.308,44.974 13.647,45.792 12.73,45.99C12.558,45.988 12.386,45.964 12.22,45.92L12.22,55.42C12.385,55.368 12.557,55.341 12.73,55.34C13.647,55.538 14.308,56.356 14.308,57.295C14.308,58.234 13.647,59.052 12.73,59.25C12.557,59.249 12.385,59.222 12.22,59.17L12.22,66C12.233,66 12.247,66 12.26,66C18.144,66 22.989,70.836 23,76.72L63.36,76.72L63.36,68.79L30.49,68.79Z" style="fill:rgb(25,82,109);fill-rule:nonzero;"/>
    </g>
    <g transform="matrix(1,0,0,1,7.995,16.925)">
        <path d="M55.13,21.52L32.51,21.52C32.287,25.261 29.686,28.464 26.07,29.45L26.07,57.09C30.134,58.088 33.111,61.616 33.41,65.79L54.41,65.79C52.233,64.605 50.244,63.102 48.51,61.33C43.845,56.732 41.26,50.419 41.36,43.87C41.241,37.236 43.879,30.841 48.64,26.22C50.536,24.314 52.727,22.726 55.13,21.52Z" style="fill:rgb(25,82,109);fill-rule:nonzero;"/>
    </g>
</svg>
